<?xml version="1.0" encoding="UTF-8" standalone="no"?>
<!DOCTYPE svg PUBLIC "-//W3C//DTD SVG 1.1//EN" "http://www.w3.org/Graphics/SVG/1.1/DTD/svg11.dtd">
<svg width="100%" height="100%" viewBox="0 0 333 333" version="1.1" xmlns="http://www.w3.org/2000/svg" xmlns:xlink="http://www.w3.org/1999/xlink" xml:space="preserve" xmlns:serif="http://www.serif.com/" style="fill-rule:evenodd;clip-rule:evenodd;stroke-linecap:round;stroke-linejoin:round;stroke-miterlimit:1.5;">
    <g transform="matrix(1,0,0,1,-750.263,-519.143)">
        <g>
            <g transform="matrix(1,0,0,1,0,370.848)">
                <g transform="matrix(1,0,0,1,673.684,28.3475)">
                    <circle cx="242.947" cy="286.316" r="163.368" style="fill:white;"/>
                    <clipPath id="_clip1">
                        <circle cx="242.947" cy="286.316" r="163.368"/>
                    </clipPath>
                    <g clip-path="url(#_clip1)">
                        <g transform="matrix(1,0,0,1,-673.684,-28.3475)">
                            <path d="M1040.7,392.446C1040.58,385.443 1040.34,371.435 1040.63,360.936C1040.94,349.395 1040.96,335.67 1042.6,323.204C1044.24,310.738 1049.27,296.8 1050.47,286.139C1051.47,277.226 1049.92,266.565 1049.81,259.239C1049.73,253.553 1049.42,247.853 1049.81,242.18C1050.22,236.244 1051.59,227.832 1052.27,223.626" style="fill:none;stroke:black;stroke-width:7px;"/>
                        </g>
                        <g transform="matrix(0.999232,-0.0391965,0.0391965,0.999232,-684.882,10.6327)">
                            <path d="M963.994,429.932C965.378,421.409 968.147,404.363 970.552,394.526C972.523,386.464 976.723,378.898 978.425,370.906C980.123,362.936 981.062,354.474 980.764,346.573C980.468,338.765 977.269,329.323 976.632,323.498C976.201,319.562 976.207,315.515 976.939,311.624C978.004,305.966 981.677,295.852 983.018,289.548C984.119,284.374 984.433,279.062 984.987,273.801C985.861,265.491 986.408,249.088 988.267,239.684C989.796,231.948 994.228,225.026 996.14,217.376C998.109,209.503 999.421,197.802 1000.08,192.444C1000.37,190.056 999.621,187.588 1000.08,185.226C1000.68,182.118 1002.68,176.569 1003.68,173.794" style="fill:none;stroke:black;stroke-width:7px;"/>
                        </g>
                        <g transform="matrix(-0.686208,0.611333,-1.04043,-0.419629,608.643,263.538)">
                            <path d="M267.956,273.271C266.336,268.882 266.473,263.634 268.35,258.031C270.845,250.487 275.733,244.005 281.999,239.393C288.341,234.726 296.173,231.882 304.639,231.882C321.861,231.882 336.389,243.958 339.812,260.167L339.813,260.172C340.663,264.283 340.162,268.969 338.346,273.889C330.834,294.266 305.86,361.932 305.86,361.932C305.539,362.802 304.571,363.657 303.497,364.02C302.422,364.384 301.504,364.167 301.255,363.49L267.956,273.271ZM302.519,256.803C300.126,256.803 297.92,257.494 296.126,258.81C293.166,260.98 291.525,264.472 291.525,268.421C291.525,275.734 297.326,281.776 304.639,281.776C307.032,281.776 309.238,281.084 311.032,279.769C313.992,277.598 315.633,274.106 315.633,270.158C315.633,262.844 309.832,256.803 302.519,256.803Z" style="fill:none;stroke:black;stroke-width:2.44px;"/>
                        </g>
                        <g transform="matrix(-0.577879,0.60285,-1.09224,-0.343359,666.851,200.409)">
                            <path d="M299.744,360.007L267.534,272.738C266.48,269.883 266.246,266.67 266.843,263.231C268.653,252.673 275.149,243.633 283.841,238.082C289.88,234.225 297.056,231.922 304.746,231.922C322.442,231.922 337.377,244.618 340.299,261.484C340.909,264.963 340.454,268.829 338.959,272.879C331.901,292.007 306.115,361.871 306.115,361.871C305.795,362.738 304.718,363.609 303.506,363.979C303.095,364.105 302.705,364.162 302.359,364.155C302.173,364.254 301.981,364.353 301.784,364.454C300.415,365.148 298.718,365.931 297.49,366.682C294.321,368.619 288.929,372.384 285.307,374.592C282.167,376.506 278.85,378.188 275.633,380.003C271.192,382.507 262.956,387.325 258.581,389.67C256.416,390.831 253.033,392.545 250.916,393.502C250.27,393.793 249.723,394.022 249.326,394.168C249.07,394.262 248.855,394.332 248.688,394.378C247.764,394.635 246.943,394.545 246.525,394.14C246.106,393.735 246.153,393.076 246.648,392.405C246.768,392.242 246.99,391.963 247.233,391.717C248.224,390.709 250.606,388.829 251.994,387.92C254.651,386.179 260.16,383.801 263.638,381.274C265.371,380.015 268.42,377.749 270.64,376.425C272.631,375.237 275.081,374.293 276.909,373.347C278.834,372.35 280.58,371.524 282.31,370.465C284.487,369.132 287.062,367.046 289.63,365.545C292.107,364.097 296.59,361.604 299.744,360.007ZM302.412,256.763C296.088,256.763 291.765,262.114 291.765,268.438C291.765,272.903 293.941,276.863 297.288,279.317C299.391,280.859 301.94,281.815 304.746,281.815C311.07,281.815 315.393,276.464 315.393,270.14C315.393,265.676 313.217,261.716 309.87,259.262C307.767,257.719 305.218,256.763 302.412,256.763Z" style="fill:none;stroke:black;stroke-width:2.51px;"/>
                        </g>
                    </g>
                    <path d="M242.947,119.947C334.769,119.947 409.316,194.495 409.316,286.316C409.316,378.137 334.769,452.684 242.947,452.684C151.126,452.684 76.579,378.137 76.579,286.316C76.579,194.495 151.126,119.947 242.947,119.947ZM242.947,122.947C152.782,122.947 79.579,196.15 79.579,286.316C79.579,376.481 152.782,449.684 242.947,449.684C333.113,449.684 406.316,376.481 406.316,286.316C406.316,196.15 333.113,122.947 242.947,122.947Z"/>
                </g>
                <g transform="matrix(0.577879,-0.60285,1.09224,0.343359,399.108,491.103)">
                    <path d="M267.534,272.738C266.48,269.883 266.246,266.67 266.843,263.231C268.653,252.673 275.149,243.633 283.841,238.082C289.88,234.225 297.056,231.922 304.746,231.922C322.442,231.922 337.377,244.618 340.299,261.484C340.909,264.963 340.454,268.829 338.959,272.879C331.901,292.007 306.115,361.871 306.115,361.871C305.795,362.738 304.718,363.609 303.506,363.979C302.295,364.349 301.263,364.123 301.008,363.431L267.534,272.738ZM302.412,256.763C296.088,256.763 291.765,262.114 291.765,268.438C291.765,272.903 293.941,276.863 297.288,279.317C299.391,280.859 301.94,281.815 304.746,281.815C311.07,281.815 315.393,276.464 315.393,270.14C315.393,265.676 313.217,261.716 309.87,259.262C307.767,257.719 305.218,256.763 302.412,256.763Z"/>
                </g>
                <g transform="matrix(0.686208,-0.611333,1.04043,0.419629,457.316,427.973)">
                    <path d="M267.956,273.271C266.336,268.882 266.473,263.634 268.35,258.031C270.845,250.487 275.733,244.005 281.999,239.393C288.341,234.726 296.173,231.882 304.639,231.882C321.861,231.882 336.389,243.958 339.812,260.167L339.813,260.172C340.663,264.283 340.162,268.969 338.346,273.889C330.834,294.266 305.86,361.932 305.86,361.932C305.539,362.802 304.571,363.657 303.497,364.02C302.422,364.384 301.504,364.167 301.255,363.49L267.956,273.271ZM302.519,256.803C300.126,256.803 297.92,257.494 296.126,258.81C293.166,260.98 291.525,264.472 291.525,268.421C291.525,275.734 297.326,281.776 304.639,281.776C307.032,281.776 309.238,281.084 311.032,279.769C313.992,277.598 315.633,274.106 315.633,270.158C315.633,262.844 309.832,256.803 302.519,256.803Z"/>
                </g>
            </g>
        </g>
    </g>
</svg>
